# xmcd
#
# Track frame offsets: 
#        150
#        13520
#        26469
#        41987
#        54150
#        68532
#        84382
#        118430
#        134897
#        145832
#
# Disc length: 2104 seconds
#
# Revision: 4
# Processed by: cddbd v1.5.2PL0 Copyright (c) Steve Scherf et al.
# Submitted via: ExactAudioCopy v0.99pb3
#
DISCID=8a08360a
DTITLE=Various Artist - Ladies Sing The Blues
DYEAR=2000
DGENRE=Blues
TTITLE0=Dirty No-Gooder's Blues (1929) - Bessie Smith
TTITLE1=Backwater Blues/Sweet Georgia Brown (1939) - Alberta Hunter
TTITLE2=Four Day Creep (1939) - Ida Cox
TTITLE3=Gabbin' Blues (1952) - Big Maybelle
TTITLE4=Maybelle's Blues (1953) -  Big Maybelle
TTITLE5=Careless Love - Helen Merrill
TTITLE6=The Blues - Sarah Vaughan
TTITLE7=Hurry On Down - Ruth Brown
TTITLE8=Muddy Waters (1965) - Aretha Franklin
TTITLE9=Evil Gal Blues (1965) -Aretha Franklin
EXTD=
EXTT0=Bessie Smith
EXTT1=Ruby Smith With Jimmy Johnson
EXTT2=Ida Cox and Her All Star Band
EXTT3=Big Maybelle Orchestra
EXTT4=Maybelle Smith
EXTT5=Helen Merrill
EXTT6=Sarah Vaughn
EXTT7=Ruth Brown
EXTT8=Aretha Franklin
EXTT9=Aretha Franklin
PLAYORDER=
